<svg xmlns="http://www.w3.org/2000/svg" viewBox="0 0 64 64"><defs><style>.cls-1{fill:#8d8d8d}.cls-3{fill:#f57070}.cls-4{fill:#ffb248}.cls-6{fill:#8cbce7}.cls-8{fill:#2b2b4c}</style></defs><g id="car_insurance" data-name="car insurance"><path class="cls-1" d="M11 45h9v5.73A2.27 2.27 0 0 1 17.73 53h-4.46A2.27 2.27 0 0 1 11 50.73V45z"/><path d="m55.93 31.69-4.8-1.37L50 30l-3 .85-.9.26-5.1 1.45v8.58a12.38 12.38 0 0 0 .62 3.86H39l-1-1H26l-1 1H11a3 3 0 0 1-3-3v-9.6a4 4 0 0 1 .88-2.5L12 26l3.63-10.9a6 6 0 0 1 5.69-4.1h21.36a5.74 5.74 0 0 1 1.32.15 6 6 0 0 1 4.37 3.95L52 26l3.12 3.9a3.89 3.89 0 0 1 .81 1.79z" style="fill:#d94747"/><path class="cls-3" d="M44 11v.15A23 23 0 0 1 21 34H8v-1.6a4 4 0 0 1 .88-2.5L12 26l3.63-10.9a6 6 0 0 1 5.69-4.1z"/><path class="cls-4" d="M14 40h6a2 2 0 0 0 2-2v-1.23a2 2 0 0 0-1.75-2L15 34h-1a2 2 0 0 0-2 2v2a2 2 0 0 0 2 2z"/><path class="cls-1" d="M37.18 40H26.82a1 1 0 0 1-1-.8l-.6-3a1 1 0 0 1 1-1.2h11.56a1 1 0 0 1 1 1.2l-.6 3a1 1 0 0 1-1 .8z"/><path d="M47.14 28.1A3 3 0 0 1 45 29H19a2.82 2.82 0 0 1-.87-.13 3 3 0 0 1-1.51-1 2.81 2.81 0 0 1-.32-2.65l3.27-8.87A2 2 0 0 1 21.44 15h21.12a2 2 0 0 1 1.87 1.31L45 18l2.65 7.19a2.83 2.83 0 0 1-.51 2.91z" style="fill:#5b97c4"/><path class="cls-6" d="M45 18 34 29h-8.32l14-14h2.88a2 2 0 0 1 1.87 1.31zM36 15 22 29h-3a2.82 2.82 0 0 1-.87-.13L32 15z"/><rect class="cls-3" x="52" y="21" width="7" height="5" rx="2.5" ry="2.5"/><rect class="cls-3" x="5" y="21" width="7" height="5" rx="2.5" ry="2.5"/><path d="M59 32.56v8.58a12.3 12.3 0 0 1-6.33 10.75A12.12 12.12 0 0 1 50 53a12.43 12.43 0 0 1-4.34-2.23 12 12 0 0 1-1.66-1.6 12.19 12.19 0 0 1-3-8v-8.61l5.1-1.45.9-.26 3-.85 1.13.32 4.8 1.37 1.62.46z" style="fill:#f79341"/><path class="cls-4" d="M56 31.71v6.43A12.34 12.34 0 0 1 47 50a12.39 12.39 0 0 1-3.77-1.8A12.31 12.31 0 0 1 41 41.14v-8.58L50 30z"/><path class="cls-8" d="M17.73 54h-4.46A3.28 3.28 0 0 1 10 50.73V45a1 1 0 0 1 1-1h9a1 1 0 0 1 1 1v2a1 1 0 0 1-2 0v-1h-7v4.73A1.27 1.27 0 0 0 13.27 52h4.46A1.27 1.27 0 0 0 19 50.88a1 1 0 0 1 2 .24A3.26 3.26 0 0 1 17.73 54z"/><path class="cls-8" d="M41.62 46H39a1 1 0 0 1-.71-.29l-.7-.71H26.41l-.7.71A1 1 0 0 1 25 46H11a4 4 0 0 1-4-4v-9.6a5 5 0 0 1 1.1-3.13l3-3.76 2.31-6.94a1 1 0 0 1 1.9.64L13 26.32a1.34 1.34 0 0 1-.17.31l-3.12 3.9A3 3 0 0 0 9 32.4V42a2 2 0 0 0 2 2h13.59l.7-.71A1 1 0 0 1 26 43h12a1 1 0 0 1 .71.29l.7.71h.9a13.12 13.12 0 0 1-.31-2.86v-8.58a1 1 0 0 1 .73-1l9-2.56a1 1 0 0 1 .54 0L54 30.1l-2.78-3.47a1.34 1.34 0 0 1-.17-.31l-3.63-10.9A5 5 0 0 0 42.68 12H21.32a5 5 0 0 0-4.74 3.42 1 1 0 0 1-1.9-.64A7 7 0 0 1 21.32 10h21.36a7 7 0 0 1 6.64 4.78l3.57 10.73 3 3.77a4.88 4.88 0 0 1 1 2.24 1 1 0 0 1-.32.92 1 1 0 0 1-.94.21L50 31l-8 2.28v7.82a11.37 11.37 0 0 0 .57 3.55 1 1 0 0 1-1 1.31z"/><path class="cls-8" d="M20 41h-6a3 3 0 0 1-3-3v-2a3 3 0 0 1 3-3h1.15l5.25.78a3 3 0 0 1 2.6 3V38a3 3 0 0 1-3 3zm-6-6a1 1 0 0 0-1 1v2a1 1 0 0 0 1 1h6a1 1 0 0 0 1-1v-1.23a1 1 0 0 0-.88-1L14.93 35zM37.18 41H33a1 1 0 0 1 0-2h4.18l.6-3H26.22l.6 3H29a1 1 0 0 1 0 2h-2.18a2 2 0 0 1-2-1.61l-.6-3a2 2 0 0 1 .42-1.67 2 2 0 0 1 1.58-.72h11.56a2 2 0 0 1 1.54.73 2 2 0 0 1 .42 1.66l-.6 3A2 2 0 0 1 37.18 41zM45 30h-7a1 1 0 0 1 0-2h7a2 2 0 0 0 1.41-.59 1.85 1.85 0 0 0 .34-1.92l-3.26-8.83a1 1 0 0 0-.93-.66H21.44a1 1 0 0 0-.93.65l-3.27 8.88a1.83 1.83 0 0 0 .17 1.69A2 2 0 0 0 19 28h15a1 1 0 0 1 0 2H19a4 4 0 0 1-3.17-1.56 3.78 3.78 0 0 1-.47-3.6L18.63 16a3 3 0 0 1 2.81-2h21.12a3 3 0 0 1 2.81 2l3.26 8.84a3.83 3.83 0 0 1-.78 4A4 4 0 0 1 45 30zM56.5 27h-2a3.5 3.5 0 0 1 0-7h2a3.5 3.5 0 0 1 0 7zm-2-5a1.5 1.5 0 0 0 0 3h2a1.5 1.5 0 0 0 0-3zM9.5 27h-2a3.5 3.5 0 0 1 0-7h2a3.5 3.5 0 0 1 0 7zm-2-5a1.5 1.5 0 0 0 0 3h2a1.5 1.5 0 0 0 0-3zM49 45a1 1 0 0 1-.71-.29l-2.5-2.5a1 1 0 0 1 1.42-1.42l1.79 1.8 4.29-4.3a1 1 0 0 1 1.42 1.42l-5 5A1 1 0 0 1 49 45z"/><path class="cls-8" d="M50 54a.84.84 0 0 1-.27 0A13.17 13.17 0 0 1 45 51.55a12.68 12.68 0 0 1-1.8-1.73 13.33 13.33 0 0 1-1.54-2.19A13 13 0 0 1 40 41.14v-8.58a1 1 0 0 1 .73-1l9-2.56a1 1 0 0 1 .54 0l9 2.56a1 1 0 0 1 .73 1v8.58a13 13 0 0 1-.4 3.21 1 1 0 1 1-1.94-.48 11 11 0 0 0 .34-2.73v-7.82L50 31l-8 2.28v7.82a11.14 11.14 0 0 0 1.44 5.51 11.84 11.84 0 0 0 1.31 1.86A10.51 10.51 0 0 0 46.28 50 11.23 11.23 0 0 0 50 52a11.47 11.47 0 0 0 2.18-1 11.32 11.32 0 0 0 4-3.8 1 1 0 1 1 1.72 1.1 13.11 13.11 0 0 1-4.75 4.46A12.68 12.68 0 0 1 50.27 54a.84.84 0 0 1-.27 0z"/></g></svg>